:SAMPLES-PER-SECOND 30
:FULLY-SPECIFIED
:DEGREES
349
root  10.3963 38.982 0.0229743 -43.4658 -82.2797 42.2266
RightUpLeg  -14.291 6.77998 -5.2958
RightLeg  31.2781 -5.13618 -3.58204
RightFoot  -10.6529 -0.10621 5.59483
RightToes  -5.28226e-011 1.30204e-014 -6.03759e-014
Spine  14.9878 -2.99764 1.20144
Spine1  -7.8971 -2.10871 -7.71654
HEad  -4.81184 1.81873 -1.51481
LeftShoulder1  0.483101 0.781632 -10.4568
LeftArm  -61.7142 -9.11582 -23.3302
LeftForeArm  85.6925 -69.9962 -143.117
LeftHand  -0.537539 -4.36381 6.67954
RightShoulder  0.632942 -0.0176118 11.0324
RightArm  -70.5493 15.3636 23.7192
RightForeArm  -0.656884 75.8058 59.5642
RightHand  4.93754 13.4571 29.1358
LeftUpLeg  -9.14484 2.44525 -8.84143
LeftLeg  23.8081 3.77784 2.18387
LeftFoot  -10.4957 0.0933967 -3.94609
LeftToes  -2.42178e-010 -1.66495e-011 -2.88221e-011
350
root  10.5069 39.3961 -0.55746 -17.8096 -84.2528 17.0936
RightUpLeg  -11.6965 6.60884 -0.544115
RightLeg  24.0734 -5.77301 -2.96407
RightFoot  -8.09366 -0.18046 4.45788
RightToes  -5.28226e-011 1.30204e-014 -6.03759e-014
Spine  15.1559 -1.89576 -0.907654
Spine1  -8.21918 -1.8586 -1.55385
HEad  -4.42074 1.78685 -0.446591
LeftShoulder1  0.516677 0.568759 -10.3035
LeftArm  -61.6256 -5.54164 -25.9525
LeftForeArm  80.0828 -70.8251 -140.833
LeftHand  -0.477083 -4.54284 5.86341
RightShoulder  0.688442 0.112303 12.0137
RightArm  -69.9754 12.389 25.1453
RightForeArm  -9.79096 74.351 51.3165
RightHand  4.91447 13.7371 28.5834
LeftUpLeg  -10.8428 2.76071 -3.87171
LeftLeg  24.7697 2.98953 1.85028
LeftFoot  -8.23105 0.215008 -5.95808
LeftToes  -2.42178e-010 -1.66495e-011 -2.88221e-011
351
root  10.5695 39.6587 -1.13784 15.1241 -83.8715 -14.8597
RightUpLeg  -9.88419 6.55906 4.03008
RightLeg  17.6878 -6.92316 -2.96758
RightFoot  -5.68721 -0.202661 3.29894
RightToes  -5.28226e-011 1.30204e-014 -6.03759e-014
Spine  14.5825 -1.07851 -2.97449
Spine1  -8.53436 -1.85684 4.39082
HEad  -3.76653 1.57923 0.750501
LeftShoulder1  0.544047 0.337807 -9.83554
LeftArm  -61.6815 -2.95548 -27.9231
LeftForeArm  72.1963 -72.1521 -136.775
LeftHand  -0.420365 -4.54567 5.19987
RightShoulder  0.756168 0.182484 13.6564
RightArm  -69.7938 9.71886 25.4625
RightForeArm  -18.1246 72.3574 43.5928
RightHand  5.09021 14.2797 28.7714
LeftUpLeg  -13.7922 2.13828 0.826924
LeftLeg  27.2494 2.41015 1.69225
LeftFoot  -6.8223 0.397989 -9.13854
LeftToes  -2.42178e-010 -1.66495e-011 -2.88221e-011
352
root  10.5853 39.6489 -1.64907 36.237 -81.3321 -35.2555
RightUpLeg  -8.90956 3.32125 8.65481
RightLeg  13.5071 -5.33701 -2.71588
RightFoot  -4.21775 -0.195273 2.66345
RightToes  -5.28226e-011 1.30204e-014 -6.03759e-014
Spine  13.7542 -0.769503 -4.48072
Spine1  -8.42078 -2.30994 10.0943
HEad  -3.33678 1.49641 1.68912
LeftShoulder1  0.523084 0.350634 -9.1691
LeftArm  -62.006 -1.25119 -29.2019
LeftForeArm  62.984 -73.4445 -131.877
LeftHand  -0.358143 -4.44766 4.51268
RightShoulder  0.799408 0.141019 15.2335
RightArm  -69.964 8.02156 25.2965
RightForeArm  -25.9656 69.915 37.0432
RightHand  5.31434 14.6538 29.4535
LeftUpLeg  -17.5439 -0.308635 5.44311
LeftLeg  32.0539 2.55517 2.08153
LeftFoot  -7.07384 0.44202 -10.6928
LeftToes  -2.42178e-010 -1.66495e-011 -2.88221e-011
353
root  10.5609 39.4269 -2.07684 46.7967 -78.0052 -45.8285
RightUpLeg  -8.02585 2.30862 12.4946
RightLeg  10.9995 -5.93139 -1.32985
RightFoot  -3.42852 -0.190469 2.41502
RightToes  -5.28226e-011 1.30204e-014 -6.03759e-014
Spine  13.041 -0.518869 -5.50083
Spine1  -7.46076 -2.88159 15.7238
HEad  -3.42458 1.51432 1.96509
LeftShoulder1  0.455063 0.648498 -8.43776
LeftArm  -62.4755 -0.394959 -30.4408
LeftForeArm  53.3424 -74.5893 -126.374
LeftHand  -0.285631 -4.42864 3.6636
RightShoulder  0.763599 -0.0996021 15.7808
RightArm  -70.4935 7.26873 25.2204
RightForeArm  -33.0199 67.2695 31.9383
RightHand  5.34334 14.5041 29.827
LeftUpLeg  -20.7492 -3.79629 10.1549
LeftLeg  37.6621 3.22433 3.03846
LeftFoot  -8.04796 0.330659 -9.75866
LeftToes  -2.42178e-010 -1.66495e-011 -2.88221e-011
354
root  10.518 39.0593 -2.42624 54.7128 -74.7568 -54.0613
RightUpLeg  -7.58098 2.76013 16.2386
RightLeg  9.9922 -7.26291 0.0716303
RightFoot  -3.35447 -0.165689 2.03909
RightToes  -5.28226e-011 1.30204e-014 -6.03759e-014
Spine  12.0299 0.120789 -6.31558
Spine1  -5.86676 -3.20055 21.3923
HEad  -3.8835 1.49685 1.50647
LeftShoulder1  0.35995 1.14745 -7.69508
LeftArm  -62.8923 -0.245972 -32.1628
LeftForeArm  43.6828 -75.5936 -120.117
LeftHand  -0.217397 -4.35765 2.87179
RightShoulder  0.656743 -0.524434 15.3709
RightArm  -71.3661 7.24206 24.9157
RightForeArm  -38.9106 64.5163 27.9147
RightHand  5.1966 13.9769 29.809
LeftUpLeg  -23.037 -7.0704 14.8579
LeftLeg  42.5456 4.16198 4.46691
LeftFoot  -9.22766 0.227468 -9.41309
LeftToes  -2.42178e-010 -1.66495e-011 -2.88221e-011
355
root  10.4712 38.6698 -2.69012 61.1376 -71.8963 -60.4674
RightUpLeg  -8.21958 3.49313 19.6095
RightLeg  10.5766 -8.15155 1.08734
RightFoot  -4.05894 -0.146105 1.86915
RightToes  -5.28226e-011 1.30204e-014 -6.03759e-014
Spine  10.4648 1.00121 -7.39793
Spine1  -4.25303 -3.4092 27.1072
HEad  -4.31761 1.56488 0.644699
LeftShoulder1  0.266737 1.70154 -7.17388
LeftArm  -63.1106 -0.291085 -34.0147
LeftForeArm  34.6434 -76.3326 -113.925
LeftHand  -0.180918 -3.92263 2.52658
RightShoulder  0.548345 -0.958528 14.857
RightArm  -72.3298 7.79345 23.8304
RightForeArm  -43.8285 61.5734 24.5357
RightHand  5.0346 13.4096 29.7645
LeftUpLeg  -24.5473 -9.98447 19.1412
LeftLeg  45.5787 5.39004 6.25781
LeftFoot  -10.8368 0.112249 -11.7292
LeftToes  -2.42178e-010 -1.66495e-011 -2.88221e-011
356
root  10.4261 38.3873 -2.86227 64.6854 -69.6489 -63.7059
RightUpLeg  -9.29654 4.13557 21.8583
RightLeg  11.6639 -8.75846 1.85369
RightFoot  -5.03495 -0.180993 2.67246
RightToes  -5.28226e-011 1.30204e-014 -6.03759e-014
Spine  8.94861 1.68901 -9.16668
Spine1  -3.13333 -3.81839 32.4609
HEad  -4.36479 1.8896 -0.0905759
LeftShoulder1  0.211187 2.07257 -7.11733
LeftArm  -63.0408 0.104962 -35.337
LeftForeArm  26.9065 -76.7883 -108.736
LeftHand  -0.169482 -3.30758 2.50499
RightShoulder  0.484569 -1.24129 14.7391
RightArm  -73.0015 8.45848 22.3276
RightForeArm  -47.8754 58.6021 21.7824
RightHand  4.84612 12.9327 29.4154
LeftUpLeg  -25.1873 -13.2988 22.3408
LeftLeg  46.5229 7.11503 8.35735
LeftFoot  -13.0307 -0.13554 -14.4964
LeftToes  -2.42178e-010 -1.66495e-011 -2.88221e-011
357
root  10.4048 38.2952 -2.94802 65.1602 -68.4188 -63.9487
RightUpLeg  -9.77069 4.46801 22.7083
RightLeg  11.8585 -9.1881 2.32782
RightFoot  -5.52495 -0.240161 3.97356
RightToes  -5.28226e-011 1.30204e-014 -6.03759e-014
Spine  8.14904 2.03312 -11.2582
Spine1  -2.62559 -4.28775 36.3073
HEad  -4.00051 2.28998 -0.286954
LeftShoulder1  0.20941 2.10207 -7.31421
LeftArm  -62.6731 1.12878 -36.0988
LeftForeArm  19.6752 -77.129 -103.363
LeftHand  -0.139024 -3.15709 2.12763
RightShoulder  0.458118 -1.38244 14.9494
RightArm  -73.2465 8.42279 21.4656
RightForeArm  -50.5057 56.1951 19.906
RightHand  4.55428 12.4873 28.3709
LeftUpLeg  -24.7341 -17.0242 23.8207
LeftLeg  45.6267 9.34201 10.4541
LeftFoot  -15.1114 -0.406063 -15.0937
LeftToes  -2.42178e-010 -1.66495e-011 -2.88221e-011
358
root  10.4405 38.3864 -2.9356 64.0988 -68.4488 -62.6846
RightUpLeg  -9.75807 4.68218 22.3303
RightLeg  11.2552 -9.58856 2.2867
RightFoot  -5.32863 -0.287085 4.77112
RightToes  -5.28226e-011 1.30204e-014 -6.03759e-014
Spine  7.98222 2.18348 -12.7433
Spine1  -2.47414 -4.42993 37.4215
HEad  -3.64093 2.46085 -0.0339966
LeftShoulder1  0.240316 1.90007 -7.3718
LeftArm  -62.1659 2.48431 -36.7179
LeftForeArm  10.8635 -77.416 -95.3824
LeftHand  -0.0616218 -3.65418 1.05288
RightShoulder  0.450657 -1.45146 15.3599
RightArm  -73.3657 7.33677 21.7459
RightForeArm  -51.5033 54.8495 18.9676
RightHand  4.2793 12.0624 27.3429
LeftUpLeg  -23.4958 -19.7255 23.4631
LeftLeg  43.3271 11.5145 11.7706
LeftFoot  -16.2229 -0.504929 -14.0481
LeftToes  -2.42178e-010 -1.66495e-011 -2.88221e-011
359
root  10.5453 38.5935 -2.80274 62.7737 -69.5627 -61.0123
RightUpLeg  -9.87195 4.86948 21.018
RightLeg  10.7273 -9.9441 1.71248
RightFoot  -4.75452 -0.328608 5.14242
RightToes  -5.28226e-011 1.30204e-014 -6.03759e-014
Spine  8.09271 2.23471 -13.0858
Spine1  -2.42318 -4.20046 35.9986
HEad  -3.68424 2.49587 0.0242071
LeftShoulder1  0.269003 1.71263 -7.40711
LeftArm  -61.7815 3.93397 -37.3592
LeftForeArm  -0.588163 -77.4136 -84.248
LeftHand  0.0491959 -4.23121 -0.320137
RightShoulder  0.465686 -1.42638 15.8629
RightArm  -73.7013 5.85898 22.6794
RightForeArm  -51.7353 54.3691 18.6496
RightHand  4.20961 11.8262 27.2731
LeftUpLeg  -22.0713 -19.8871 21.7354
LeftLeg  40.1258 12.6152 11.5257
LeftFoot  -16.2357 -0.458594 -12.9475
LeftToes  -2.42178e-010 -1.66495e-011 -2.88221e-011
360
root  10.6975 38.852 -2.55276 61.0991 -71.395 -59.0331
RightUpLeg  -10.1005 4.96769 19.0352
RightLeg  10.6401 -9.86022 0.772409
RightFoot  -4.11491 -0.389039 5.70852
RightToes  -5.28226e-011 1.30204e-014 -6.03759e-014
Spine  8.45176 2.17108 -12.6442
Spine1  -2.34403 -3.89053 33.399
HEad  -3.97386 2.76653 -0.65583
LeftShoulder1  0.288658 1.63535 -7.89108
LeftArm  -61.6187 5.54245 -37.9218
LeftForeArm  -13.5304 -76.8399 -71.8043
LeftHand  0.15898 -4.4371 -1.59753
RightShoulder  0.505232 -1.2824 16.2121
RightArm  -74.1316 4.97792 23.6546
RightForeArm  -52.2111 54.0948 18.4771
RightHand  4.2803 11.8053 27.7528
LeftUpLeg  -20.606 -17.4615 19.1017
LeftLeg  36.5472 12.0422 9.78435
LeftFoot  -15.5471 -0.339917 -11.7407
LeftToes  -2.42178e-010 -1.66495e-011 -2.88221e-011
